<svg id="Group_2919" data-name="Group 2919" xmlns="http://www.w3.org/2000/svg" xmlns:xlink="http://www.w3.org/1999/xlink" width="208.5" height="67.788" viewBox="0 0 208.5 67.788">
  <defs>
    <clipPath id="clip-path">
      <rect id="Rectangle_2229" data-name="Rectangle 2229" width="208.5" height="67.788" fill="#3d0043"/>
    </clipPath>
  </defs>
  <path id="Path_145746" data-name="Path 145746" d="M128.475,223.214h-4.5V219.6H122v9.644h1.97v-4.229h4.5v4.229h1.97V219.6h-1.97Z" transform="translate(-89.882 -161.79)" fill="#3d0043"/>
  <path id="Path_145747" data-name="Path 145747" d="M163.288,227.628h2.232l1-2.176h3.3l1.009,2.176h2.245l-4.9-10.222Zm3.694-3.761,1.183-2.742,1.189,2.742Z" transform="translate(-120.3 -160.171)" fill="#3d0043"/>
  <g id="Group_2918" data-name="Group 2918">
    <g id="Group_2917" data-name="Group 2917" clip-path="url(#clip-path)">
      <path id="Path_145748" data-name="Path 145748" d="M213.8,225.969a2.164,2.164,0,0,1-.193.95,1.44,1.44,0,0,1-.578.627,2.1,2.1,0,0,1-1.9,0,1.439,1.439,0,0,1-.579-.627,2.164,2.164,0,0,1-.193-.95V219.6H208.4v6.476a3.9,3.9,0,0,0,.269,1.5,2.943,2.943,0,0,0,.764,1.089,3.437,3.437,0,0,0,1.171.675,4.759,4.759,0,0,0,2.948,0,3.515,3.515,0,0,0,1.178-.675,2.978,2.978,0,0,0,.778-1.089,3.807,3.807,0,0,0,.276-1.5V219.6H213.8Z" transform="translate(-153.534 -161.79)" fill="#3d0043"/>
      <path id="Path_145749" data-name="Path 145749" d="M245.707,221.395h2.576v7.853h1.984v-7.853h2.6V219.6h-7.164Z" transform="translate(-181.022 -161.79)" fill="#3d0043"/>
      <path id="Path_145750" data-name="Path 145750" d="M273.286,227.628h2.232l1-2.176h3.3l1.009,2.176h2.245l-4.9-10.222Zm3.694-3.761,1.183-2.742,1.189,2.742Z" transform="translate(-201.34 -160.171)" fill="#3d0043"/>
      <path id="Path_145751" data-name="Path 145751" d="M323.794,225.969a2.164,2.164,0,0,1-.193.95,1.44,1.44,0,0,1-.578.627,2.1,2.1,0,0,1-1.9,0,1.438,1.438,0,0,1-.579-.627,2.164,2.164,0,0,1-.193-.95V219.6h-1.956v6.476a3.9,3.9,0,0,0,.269,1.5,2.944,2.944,0,0,0,.764,1.089,3.436,3.436,0,0,0,1.171.675,4.759,4.759,0,0,0,2.948,0,3.515,3.515,0,0,0,1.178-.675,2.978,2.978,0,0,0,.778-1.089,3.807,3.807,0,0,0,.276-1.5V219.6h-1.984Z" transform="translate(-234.573 -161.79)" fill="#3d0043"/>
      <path id="Path_145752" data-name="Path 145752" d="M363.673,224.093a3.374,3.374,0,0,0-.785-.606,5.763,5.763,0,0,0-.909-.413q-.537-.193-.944-.365a3.763,3.763,0,0,1-.675-.358,1.415,1.415,0,0,1-.406-.406.892.892,0,0,1-.138-.482.8.8,0,0,1,.131-.448.936.936,0,0,1,.386-.324,1.46,1.46,0,0,1,.64-.124,1.763,1.763,0,0,1,.772.165,2.037,2.037,0,0,1,.613.455,3.811,3.811,0,0,1,.475.634l1.543-.882a4.107,4.107,0,0,0-.7-.971,3.566,3.566,0,0,0-1.123-.785,3.768,3.768,0,0,0-1.584-.31,3.885,3.885,0,0,0-1.632.331,2.768,2.768,0,0,0-1.143.93,2.4,2.4,0,0,0-.42,1.412,2.424,2.424,0,0,0,.262,1.171,2.852,2.852,0,0,0,.668.827,3.812,3.812,0,0,0,.847.551q.441.207.8.345.648.248,1.089.461a1.913,1.913,0,0,1,.668.5,1.118,1.118,0,0,1,.227.723,1.044,1.044,0,0,1-.627.992,1.631,1.631,0,0,1-.7.138,2.043,2.043,0,0,1-.951-.227,2.879,2.879,0,0,1-.806-.627,5.056,5.056,0,0,1-.668-.937l-1.419,1.006a4.275,4.275,0,0,0,2.211,2.163,4.14,4.14,0,0,0,1.66.331,3.986,3.986,0,0,0,1.254-.2,3.53,3.53,0,0,0,1.088-.579,2.806,2.806,0,0,0,.765-.923,2.913,2.913,0,0,0,.076-2.328,2.8,2.8,0,0,0-.551-.833" transform="translate(-263.14 -161.25)" fill="#3d0043"/>
      <path id="Path_145753" data-name="Path 145753" d="M392.388,221.395h2.576v7.853h1.984v-7.853h2.6V219.6h-7.164Z" transform="translate(-289.087 -161.79)" fill="#3d0043"/>
      <path id="Path_145754" data-name="Path 145754" d="M433.142,220.283a5.024,5.024,0,0,0-1.619-1.04,5.675,5.675,0,0,0-4.043,0,4.925,4.925,0,0,0-1.619,1.04,4.66,4.66,0,0,0-1.068,1.584,5.225,5.225,0,0,0-.379,2.018,5.387,5.387,0,0,0,.372,2.018,4.743,4.743,0,0,0,1.054,1.612,4.825,4.825,0,0,0,1.612,1.061,5.711,5.711,0,0,0,4.092,0,4.761,4.761,0,0,0,2.673-2.68,5.313,5.313,0,0,0,.379-2.011,5.233,5.233,0,0,0-.379-2.018,4.622,4.622,0,0,0-1.075-1.584m-.861,4.87a3.038,3.038,0,0,1-.62,1.006,2.771,2.771,0,0,1-.951.661,3.253,3.253,0,0,1-2.425,0,2.767,2.767,0,0,1-.95-.661,3.017,3.017,0,0,1-.62-1.012,3.732,3.732,0,0,1,0-2.528,3.031,3.031,0,0,1,.62-1.006,2.772,2.772,0,0,1,.95-.661,3.325,3.325,0,0,1,2.452,0,2.774,2.774,0,0,1,.951.661,2.854,2.854,0,0,1,.606,1.013,3.769,3.769,0,0,1,.206,1.261,3.533,3.533,0,0,1-.22,1.267" transform="translate(-312.682 -161.25)" fill="#3d0043"/>
      <rect id="Rectangle_2226" data-name="Rectangle 2226" width="1.997" height="9.644" transform="translate(124.834 57.814)" fill="#3d0043"/>
      <path id="Path_145755" data-name="Path 145755" d="M498.332,223.986l-4.05-6.213L492.863,227.9h2.052l.634-5.387L498.332,227l2.783-4.491.633,5.387h2.067l-1.461-10.126Z" transform="translate(-363.11 -160.442)" fill="#3d0043"/>
      <rect id="Rectangle_2227" data-name="Rectangle 2227" width="1.998" height="9.644" transform="translate(143.612 57.814)" fill="#3d0043"/>
      <path id="Path_145756" data-name="Path 145756" d="M570.586,224.093a3.372,3.372,0,0,0-.785-.606,5.768,5.768,0,0,0-.909-.413q-.537-.193-.943-.365a3.776,3.776,0,0,1-.675-.358,1.413,1.413,0,0,1-.406-.406.892.892,0,0,1-.138-.482.8.8,0,0,1,.131-.448.934.934,0,0,1,.386-.324,1.459,1.459,0,0,1,.64-.124,1.762,1.762,0,0,1,.772.165,2.034,2.034,0,0,1,.613.455,3.8,3.8,0,0,1,.475.634l1.543-.882a4.11,4.11,0,0,0-.7-.971,3.574,3.574,0,0,0-1.123-.785,3.77,3.77,0,0,0-1.585-.31,3.884,3.884,0,0,0-1.632.331,2.766,2.766,0,0,0-1.144.93,2.4,2.4,0,0,0-.42,1.412,2.424,2.424,0,0,0,.262,1.171,2.847,2.847,0,0,0,.668.827,3.805,3.805,0,0,0,.847.551q.441.207.8.345.648.248,1.089.461a1.91,1.91,0,0,1,.668.5,1.117,1.117,0,0,1,.227.723,1.043,1.043,0,0,1-.627.992,1.632,1.632,0,0,1-.7.138,2.042,2.042,0,0,1-.95-.227,2.87,2.87,0,0,1-.806-.627,5.038,5.038,0,0,1-.668-.937l-1.419,1.006a4.274,4.274,0,0,0,2.212,2.163,4.134,4.134,0,0,0,1.66.331,3.985,3.985,0,0,0,1.254-.2,3.531,3.531,0,0,0,1.089-.579,2.8,2.8,0,0,0,.765-.923,2.91,2.91,0,0,0,.076-2.328,2.8,2.8,0,0,0-.551-.833" transform="translate(-415.581 -161.25)" fill="#3d0043"/>
      <path id="Path_145757" data-name="Path 145757" d="M599.3,221.395h2.576v7.853h1.984v-7.853h2.6V219.6H599.3Z" transform="translate(-441.527 -161.79)" fill="#3d0043"/>
      <path id="Path_145758" data-name="Path 145758" d="M640.056,220.283a5.022,5.022,0,0,0-1.619-1.04,5.675,5.675,0,0,0-4.043,0,4.926,4.926,0,0,0-1.619,1.04,4.663,4.663,0,0,0-1.068,1.584,5.229,5.229,0,0,0-.379,2.018,5.388,5.388,0,0,0,.372,2.018,4.74,4.74,0,0,0,1.054,1.612,4.826,4.826,0,0,0,1.612,1.061,5.71,5.71,0,0,0,4.092,0,4.763,4.763,0,0,0,2.673-2.68,5.319,5.319,0,0,0,.379-2.011,5.239,5.239,0,0,0-.379-2.018,4.625,4.625,0,0,0-1.075-1.584m-.861,4.87a3.043,3.043,0,0,1-.62,1.006,2.774,2.774,0,0,1-.951.661,3.253,3.253,0,0,1-2.425,0,2.773,2.773,0,0,1-.951-.661,3.015,3.015,0,0,1-.62-1.012,3.732,3.732,0,0,1,0-2.528,3.03,3.03,0,0,1,.62-1.006,2.777,2.777,0,0,1,.951-.661,3.325,3.325,0,0,1,2.452,0,2.774,2.774,0,0,1,.95.661,2.84,2.84,0,0,1,.606,1.013,3.756,3.756,0,0,1,.207,1.261,3.538,3.538,0,0,1-.22,1.267" transform="translate(-465.123 -161.25)" fill="#3d0043"/>
      <path id="Path_145759" data-name="Path 145759" d="M605.415,68.3h13.516v-4.89H600.526V93.022h18.405V88.092H605.415V79.347h14.668v-4.89H605.415Z" transform="translate(-442.429 -46.714)" fill="#3d0043"/>
      <rect id="Rectangle_2228" data-name="Rectangle 2228" width="4.89" height="29.615" transform="translate(43.301 16.693)" fill="#3d0043"/>
      <path id="Path_145760" data-name="Path 145760" d="M214.742,88.093H201.227V79.347H215.9V74.458H201.227V68.3h13.516V63.407h-18.4V93.022h18.4Z" transform="translate(-144.649 -46.714)" fill="#3d0043"/>
      <path id="Path_145761" data-name="Path 145761" d="M288.8,63.407h-4.89V93.022H301.24V88.093H288.8Z" transform="translate(-209.165 -46.714)" fill="#3d0043"/>
      <path id="Path_145762" data-name="Path 145762" d="M370.542,61.745a15.266,15.266,0,1,0,15.106,15.3,15.262,15.262,0,0,0-15.106-15.3m0,25.68A10.377,10.377,0,1,1,380.719,77.05a10.316,10.316,0,0,1-10.176,10.375" transform="translate(-261.892 -45.49)" fill="#3d0043"/>
      <path id="Path_145763" data-name="Path 145763" d="M510.71,93.022V63.407h-4.89v14.43a50.191,50.191,0,0,0-16.934-14.43h-5.526V93.022h4.89V68.614c8.388,5.009,17.451,13.913,17.451,24.408Z" transform="translate(-356.11 -46.714)" fill="#3d0043"/>
      <path id="Path_145764" data-name="Path 145764" d="M710.557,77.837a50.191,50.191,0,0,0-16.934-14.43H688.1V93.022h4.89V68.615c8.388,5.009,17.451,13.913,17.451,24.407h5.009V63.407h-4.89Z" transform="translate(-506.946 -46.714)" fill="#3d0043"/>
      <path id="Path_145765" data-name="Path 145765" d="M34.876,93.022H39.8V63.407h-6.44c-4.9,4.038-10.377,13.739-13.462,21.726C16.816,77.146,11.336,67.445,6.44,63.407H0V93.022H4.929V68.893c3.458,3.816,8.224,9.816,12.577,24.046H22.3c4.353-14.23,9.118-20.229,12.577-24.046Z" transform="translate(0 -46.714)" fill="#3d0043"/>
      <path id="Path_145766" data-name="Path 145766" d="M705.965,9.553a18.756,18.756,0,0,1-3.707,2.65l.911,1.593c3.366-1.87,7.577-5.4,7.577-9.625a2.8,2.8,0,0,0-2.8-2.813H703.64a2.8,2.8,0,0,0-2.813,2.813c0,2.5,3.138,4.455,5.138,5.382M703.64,3.229h4.309a.944.944,0,0,1,.943.943,6.627,6.627,0,0,1-1.61,3.918c-1.317-.537-4.585-2.309-4.585-3.918a.933.933,0,0,1,.943-.943" transform="translate(-516.325 -1.001)" fill="#3d0043"/>
      <path id="Path_145767" data-name="Path 145767" d="M746.732,12.486h1.837V9.706h.846V7.836h-.78V0A11.237,11.237,0,0,0,742.7,3.641a8.212,8.212,0,0,0-1.854,5.122v.943h5.885Zm-3.951-4.65a7.218,7.218,0,0,1,4.048-5.154l-.065,5.154Z" transform="translate(-545.809 0.001)" fill="#3d0043"/>
      <path id="Path_145768" data-name="Path 145768" d="M776.358,1.358v1.87h2.26V13.487h1.853V1.358Z" transform="translate(-571.971 -1.001)" fill="#3d0043"/>
      <path id="Path_145769" data-name="Path 145769" d="M683.529,13.487V1.358h-4.113v1.87h2.26V13.487Z" transform="translate(-500.551 -1.001)" fill="#3d0043"/>
    </g>
  </g>
</svg>
